<svg width="93" height="89" viewBox="0 0 93 89" fill="none" xmlns="http://www.w3.org/2000/svg">
<path d="M83.5 28.3333H57.5445L62.7384 12.6206C63.6726 9.78325 63.2009 6.63792 61.4665 4.21125C59.7321 1.78459 56.9201 0.333252 53.9555 0.333252H46.5C45.1264 0.333252 43.8268 0.949252 42.9434 2.01325L21.2059 28.3333H9.5C4.39863 28.3333 0.25 32.5193 0.25 37.6666V79.6666C0.25 84.8139 4.39863 88.9999 9.5 88.9999H71.0449C72.9267 88.9936 74.7624 88.4112 76.3092 87.3296C77.8559 86.248 79.0409 84.7183 79.7075 82.9426L92.4586 48.6379C92.6523 48.1139 92.7509 47.5591 92.75 46.9999V37.6666C92.75 32.5193 88.6014 28.3333 83.5 28.3333ZM9.5 37.6666H18.75V79.6666H9.5V37.6666ZM83.5 46.1553L71.0449 79.6666H28V34.6893L48.6645 9.66659H53.9648L46.7405 31.5206C46.506 32.2221 46.4406 32.9698 46.5497 33.7019C46.6588 34.434 46.9393 35.1293 47.3679 35.7301C47.7966 36.331 48.361 36.82 49.0144 37.1568C49.6678 37.4936 50.3913 37.6683 51.125 37.6666H83.5V46.1553Z" fill="#5762C3"/>
</svg>
