<svg width="111" height="112" viewBox="0 0 111 112" fill="none" xmlns="http://www.w3.org/2000/svg">
<path d="M55.5 7C45.8953 7 36.5062 9.8738 28.5201 15.258C20.5341 20.6422 14.3097 28.2949 10.6341 37.2485C6.95854 46.2021 5.99684 56.0544 7.87064 65.5594C9.74443 75.0645 14.3696 83.7955 21.1611 90.6482C27.9527 97.501 36.6057 102.168 46.026 104.058C55.4462 105.949 65.2104 104.979 74.0841 101.27C82.9577 97.5614 90.5421 91.2809 95.8783 83.2229C101.214 75.1649 104.063 65.6913 104.063 56C104.063 43.0044 98.9461 30.541 89.8389 21.3518C80.7317 12.1625 68.3796 7 55.5 7V7ZM55.5 98C47.2674 98 39.2196 95.5367 32.3744 90.9217C25.5292 86.3067 20.194 79.7472 17.0435 72.0727C13.893 64.3982 13.0687 55.9534 14.6748 47.8062C16.2809 39.659 20.2453 32.1753 26.0667 26.3015C31.8881 20.4277 39.3049 16.4276 47.3794 14.807C55.4538 13.1864 63.8232 14.0182 71.4292 17.1971C79.0352 20.3759 85.5361 25.7592 90.1099 32.6661C94.6838 39.5729 97.125 47.6932 97.125 56C97.125 67.1391 92.7395 77.822 84.9333 85.6985C77.1271 93.575 66.5397 98 55.5 98Z" fill="#5762C3"/>
<path d="M39.8906 38.4998C38.1755 38.4998 36.4989 39.013 35.0728 39.9744C33.6467 40.9359 32.5352 42.3025 31.8789 43.9013C31.2225 45.5002 31.0508 47.2595 31.3854 48.9568C31.72 50.6542 32.5459 52.2133 33.7587 53.437C34.9715 54.6607 36.5167 55.494 38.1988 55.8317C39.881 56.1693 41.6246 55.996 43.2092 55.3337C44.7938 54.6715 46.1482 53.55 47.101 52.111C48.0539 50.6721 48.5625 48.9804 48.5625 47.2498C48.5717 46.0981 48.3538 44.9561 47.9212 43.8903C47.4887 42.8245 46.8503 41.8562 46.0432 41.0418C45.2361 40.2274 44.2764 39.5833 43.2201 39.1469C42.1638 38.7104 41.032 38.4905 39.8906 38.4998Z" fill="#5762C3"/>
<path d="M71.1094 38.4998C69.3942 38.4998 67.7176 39.013 66.2915 39.9744C64.8655 40.9359 63.754 42.3025 63.0976 43.9013C62.4413 45.5002 62.2695 47.2595 62.6041 48.9568C62.9387 50.6542 63.7647 52.2133 64.9774 53.437C66.1902 54.6607 67.7354 55.494 69.4176 55.8317C71.0998 56.1693 72.8434 55.996 74.428 55.3337C76.0125 54.6715 77.3669 53.55 78.3198 52.111C79.2727 50.6721 79.7812 48.9804 79.7812 47.2498C79.7905 46.0981 79.5725 44.9561 79.14 43.8903C78.7074 42.8245 78.069 41.8562 77.2619 41.0418C76.4548 40.2274 75.4952 39.5833 74.4389 39.1469C73.3826 38.7104 72.2508 38.4905 71.1094 38.4998Z" fill="#5762C3"/>
<path d="M31.2188 70C33.7122 74.2593 37.2631 77.7892 41.5212 80.2413C45.7792 82.6934 50.5973 83.9831 55.5 83.9831C60.4027 83.9831 65.2208 82.6934 69.4788 80.2413C73.7369 77.7892 77.2878 74.2593 79.7812 70H31.2188Z" fill="#5762C3"/>
</svg>
