<svg width="111" height="112" viewBox="0 0 111 112" fill="none" xmlns="http://www.w3.org/2000/svg">
<path d="M97.1694 85.8609C103.786 79.9109 107.532 71.9801 107.532 63.7501C107.532 55.0036 103.474 46.8237 96.1056 40.7157C88.934 34.7732 79.4413 31.5 69.375 31.5C59.3087 31.5 49.816 34.7732 42.6455 40.7162C35.2768 46.8237 31.2188 55.0036 31.2188 63.7501C31.2188 72.4966 35.2768 80.6765 42.6455 86.7845C49.816 92.7275 59.3087 96.0004 69.375 96.0004C70.7163 96.0004 72.0659 95.9407 73.4042 95.8219L75.6905 97.8215C83.5671 104.708 93.6401 108.5 104.062 108.5H107.531V101.05L106.515 100.025C102.508 95.9695 99.3318 91.1562 97.1694 85.8609ZM80.2341 92.5312L75.6465 88.5192L74.1168 88.7084C72.5435 88.9025 70.96 88.9999 69.375 89C52.1613 89 38.1562 77.6729 38.1562 63.7501C38.1562 49.8273 52.1613 38.5 69.375 38.5C86.5887 38.5 100.594 49.8271 100.594 63.7501C100.594 70.6867 97.164 77.1625 90.9363 81.9847L88.9385 83.5314L89.8604 86.1641C91.7495 91.5409 94.5262 96.5566 98.0731 100.999C91.4678 99.8866 85.2949 96.9564 80.2341 92.5312Z" fill="#5762C3"/>
<path d="M13.0479 69.4479C16.2949 65.3007 18.8443 60.6432 20.5942 55.6616L21.5091 53.0421L19.513 51.4964C13.6404 46.9494 10.4062 40.8467 10.4062 34.3125C10.4062 21.1822 23.6328 10.5 39.8906 10.5C51.8509 10.5 62.1702 16.2816 66.7901 24.5656C67.648 24.5236 68.5095 24.5 69.375 24.5C71.1133 24.5 72.8357 24.5851 74.5421 24.7553C72.7568 20.0882 69.6562 15.8279 65.3933 12.2951C58.5508 6.62353 49.4947 3.5 39.8906 3.5C30.2865 3.5 21.2305 6.62353 14.3875 12.2951C7.34638 18.1311 3.46875 25.9503 3.46875 34.3125C3.46875 42.1437 7.01381 49.6895 13.2788 55.3656C11.2343 60.3301 8.24686 64.8431 4.48488 68.6501L3.46875 69.6752V77H6.9375C13.3519 76.9992 19.6781 75.492 25.4153 72.5977C24.7862 70.1917 24.4176 67.724 24.3159 65.2378C20.8337 67.2971 17.0196 68.7222 13.0479 69.4479Z" fill="#5762C3"/>
</svg>
