<svg width="43" height="38" viewBox="0 0 43 38" fill="none" xmlns="http://www.w3.org/2000/svg">
<path d="M43.0001 33.66V35.6226C43.0001 36.0077 42.8916 36.3769 42.6985 36.6492C42.5054 36.9215 42.2435 37.0744 41.9704 37.0744H11.4602C11.3208 37.0732 11.183 37.0321 11.0551 36.9535C10.9273 36.8749 10.8121 36.7606 10.7166 36.6174L10.4687 36.2679C9.824 35.2906 9.12235 34.3913 8.37109 33.5794L43.0001 33.66Z" fill="black"/>
<path d="M0.800916 27.5839L1.58274 27.8259C3.42737 28.4636 5.17275 29.5755 6.73132 31.1058H42.9621V27.2613C42.9623 26.9286 42.8816 26.6059 42.7333 26.3472L42.5426 26.0246C41.0342 23.5105 39.4098 21.1395 37.68 18.927C35.6534 16.2998 33.4998 13.8743 31.2348 11.668C30.8087 10.0718 30.0347 8.70704 29.0239 7.76991C28.0132 6.83278 26.8178 6.37151 25.6095 6.45237H24.8658C19.1172 2.28591 12.7562 0.0760747 6.29274 0H4.38585C4.15267 0.0126333 3.92944 0.136565 3.75275 0.351486C3.57606 0.566406 3.45639 0.859569 3.41334 1.18293L0.0190944 25.8901C-0.0321826 26.2603 0.0207463 26.6441 0.166674 26.9603C0.312602 27.2764 0.540071 27.5001 0.800916 27.5839ZM5.73974 15.0824L6.63598 7.474C6.70666 6.85511 6.94494 6.29905 7.30063 5.92294C7.65632 5.54682 8.10166 5.38001 8.54286 5.45763C12.8612 5.95104 17.0802 7.54515 20.9948 10.1625C24.389 12.851 24.8086 15.6739 24.8086 17.1257C24.7797 17.7344 24.5889 18.3053 24.2742 18.7241C23.9594 19.1429 23.5442 19.3786 23.1114 19.384H22.997L7.39873 17.9322C7.1678 17.9089 6.9426 17.82 6.73668 17.6708C6.53076 17.5216 6.34837 17.3153 6.20051 17.0641C6.05265 16.8129 5.94236 16.5222 5.87628 16.2093C5.8102 15.8965 5.7897 15.568 5.81602 15.2437L5.73974 15.0824Z" fill="black"/>
<path d="M11.46 15.3243C11.4648 15.2219 11.484 15.1218 11.5163 15.0297C11.5487 14.9377 11.5936 14.8557 11.6485 14.7882C11.7035 14.7208 11.7673 14.6693 11.8364 14.6367C11.9055 14.6041 11.9784 14.5911 12.0511 14.5984L17.1615 15.1361C17.2342 15.143 17.3052 15.17 17.3705 15.2156C17.4357 15.2612 17.494 15.3246 17.5418 15.402C17.5896 15.4795 17.6262 15.5695 17.6493 15.6669C17.6724 15.7643 17.6816 15.8671 17.6764 15.9696V17.0181C17.6667 17.2154 17.6042 17.4002 17.5015 17.5349C17.3989 17.6697 17.2637 17.7444 17.1234 17.744L12.013 17.2063C11.9403 17.1995 11.8693 17.1725 11.804 17.1268C11.7388 17.0812 11.6805 17.0178 11.6327 16.9404C11.5848 16.863 11.5483 16.773 11.5252 16.6756C11.5021 16.5782 11.4929 16.4753 11.4981 16.3728L11.46 15.3243Z" fill="black"/>
</svg>
