<svg width="189" height="189" viewBox="0 0 189 189" fill="none" xmlns="http://www.w3.org/2000/svg">
<circle cx="94.5" cy="94.5" r="93" fill="#E4ECF7" stroke="white" stroke-width="3"/>
<path d="M184 97.4353C184 54.1167 148.883 19 105.565 19C62.246 19 19 54.1167 19 97.4353C19 140.754 50.6814 186.5 94 186.5C137.319 186.5 184 140.754 184 97.4353Z" fill="#E4ECF7"/>
<path d="M71.2423 121.949C78.0109 121.949 83.4979 116.462 83.4979 109.694C83.4979 102.925 78.0109 97.438 71.2423 97.438C64.4738 97.438 58.9868 102.925 58.9868 109.694C58.9868 116.462 64.4738 121.949 71.2423 121.949Z" fill="#836055"/>
<path d="M71.2456 119.497H112.914V184C112.914 184 103.905 186.5 92 186.5C80.095 186.5 71.2456 183 71.2456 183V119.497Z" fill="#836055"/>
<path d="M112.91 151.038C112.91 164.897 104.331 166.068 96.6911 163.583C89.0534 161.102 73.6924 139.484 73.6924 125.625C73.6924 111.767 75.614 112.144 86.9602 112.144C119.038 113.37 112.91 137.18 112.91 151.038Z" fill="#553329"/>
<path d="M139.598 107.483C139.598 129.352 130.068 153.809 114.136 157.486C90.8502 155.035 69.8442 129.352 69.8442 107.483C63.8929 81.5016 65.1185 50.8628 105.562 50.8628C146.005 50.8628 139.598 85.6121 139.598 107.483Z" fill="#836055"/>
<path d="M120.265 119.497H117.813C116.46 119.497 115.362 120.594 115.362 121.948C115.362 123.302 116.46 124.399 117.813 124.399H120.265C121.618 124.399 122.716 123.302 122.716 121.948C122.716 120.594 121.618 119.497 120.265 119.497Z" fill="#68463C"/>
<path d="M27.1212 43.5108C46.7227 23.9118 58.988 50.8666 58.988 50.8666L54.0809 70.4754C54.0809 70.4754 49.1787 76.6031 54.0809 94.9864C58.9831 113.37 47.9531 123.174 47.9531 123.174C47.9531 123.174 39.3743 129.304 32.0209 124.402C24.6676 119.5 23.6946 114.789 24.6676 106.019C25.8932 94.9889 29.5698 98.6606 29.5698 87.6307C29.5698 76.6007 7.51727 63.1098 27.1187 43.5108H27.1212Z" fill="#1B0B47"/>
<path d="M59.0565 51.3027L72.5572 57.1413L63.8019 77.3874L50.3036 71.5538C50.3036 71.5538 47.9506 66.7913 51.6272 59.4404C55.2965 52.0871 59.059 51.3027 59.059 51.3027H59.0565Z" fill="#FF6C98"/>
<path fill-rule="evenodd" clip-rule="evenodd" d="M71.2431 119.497L68.0002 97.871C65.1365 98.654 62.6543 100.45 61.0148 102.925C59.3753 105.4 58.6901 108.386 59.0864 111.329C59.4827 114.271 60.9335 116.969 63.1694 118.922C65.4053 120.876 68.2742 121.951 71.2431 121.948V142.292C67.3577 138.845 63.9873 134.858 61.2352 130.454C57.0683 123.826 54.1564 116.227 52.7005 108.166C51.2453 100.082 51.2786 91.8001 52.7985 83.7282C54.3182 75.6812 57.2914 68.1146 61.5146 61.5334C65.7354 54.9547 71.1107 49.5157 77.2752 45.5865C83.4373 41.655 90.2464 39.324 97.2443 38.7504C98.7672 38.6258 100.296 38.5849 101.823 38.6279C108.343 38.4554 114.833 39.5587 120.929 41.8756C126.579 44.0325 131.714 47.192 136.038 51.1751C140.309 55.0836 143.743 59.8172 146.134 65.09C147.952 69.1213 149.092 73.4254 149.507 77.8284H149.678V88.3338C149.678 88.3338 148.872 88.7064 147.232 89.2309V110.036C147.232 110.036 147.232 113.477 143.555 116.056C142.281 116.95 140.57 117.637 138.874 118.154C139.355 114.618 139.598 111.053 139.602 107.484C139.602 104.95 139.688 102.241 139.776 99.4348C139.864 96.6945 139.955 93.8586 139.972 91.0006C135.433 91.8315 129.268 92.535 121.398 92.535C102.161 92.535 90.8519 88.3338 90.8519 88.3338V85.8851C89.1851 88.4931 87.3811 91.6452 85.9497 94.9861C84.1113 99.2755 84.1113 103.673 84.1113 107.367C84.1113 111.063 84.1113 114.058 82.273 115.541C78.5964 118.507 71.2431 119.497 71.2431 119.497Z" fill="#1B0B47"/>
<path d="M108.01 110.922C108.01 108.891 106.364 107.245 104.333 107.245C102.303 107.245 100.657 108.891 100.657 110.922V113.373C100.657 115.403 102.303 117.05 104.333 117.05C106.364 117.05 108.01 115.403 108.01 113.373V110.922Z" fill="#1B0B47"/>
<path d="M132.524 110.922C132.524 108.891 130.878 107.245 128.847 107.245C126.817 107.245 125.17 108.891 125.17 110.922V113.373C125.17 115.403 126.817 117.05 128.847 117.05C130.878 117.05 132.524 115.403 132.524 113.373V110.922Z" fill="#1B0B47"/>
<path d="M94.53 114.595H89.6278C87.5973 114.595 85.9512 116.241 85.9512 118.271C85.9512 120.302 87.5973 121.948 89.6278 121.948H94.53C96.5606 121.948 98.2067 120.302 98.2067 118.271C98.2067 116.241 96.5606 114.595 94.53 114.595Z" fill="#FF859B"/>
<path d="M138.655 114.594H136.204C134.173 114.594 132.527 116.24 132.527 118.27C132.527 120.301 134.173 121.947 136.204 121.947H138.655C140.685 121.947 142.331 120.301 142.331 118.27C142.331 116.24 140.685 114.594 138.655 114.594Z" fill="#FF859B"/>
</svg>
