<?xml version="1.0" standalone="no"?>
<!DOCTYPE svg PUBLIC "-//W3C//DTD SVG 20010904//EN"
 "http://www.w3.org/TR/2001/REC-SVG-20010904/DTD/svg10.dtd">
<svg version="1.0" xmlns="http://www.w3.org/2000/svg"
 width="521.000000pt" height="400.000000pt" viewBox="0 0 521.000000 400.000000"
 preserveAspectRatio="xMidYMid meet">

<g transform="translate(0.000000,400.000000) scale(0.100000,-0.100000)"
fill="#000000" stroke="none">
<path d="M3050 3950 c-42 -16 -68 -19 -116 -14 -69 7 -146 -7 -182 -34 -57
-43 -58 -154 -3 -209 32 -32 41 -32 41 -1 0 28 37 95 62 112 32 23 88 20 165
-9 37 -14 79 -25 92 -23 36 4 61 46 68 113 5 49 3 60 -12 71 -25 19 -49 17
-115 -6z"/>
<path d="M1666 3853 c-4 -4 -35 -8 -70 -8 -56 -1 -70 -6 -112 -36 -44 -31 -52
-43 -74 -110 -14 -42 -38 -91 -53 -109 -53 -62 -54 -86 -6 -149 28 -35 24 -63
-21 -149 -48 -91 -47 -119 8 -182 33 -39 34 -43 23 -79 -13 -44 -13 -97 -1
-126 7 -17 9 -16 10 10 10 163 74 345 127 366 42 16 44 10 9 -38 -36 -52 -70
-134 -81 -200 l-6 -41 58 -8 c32 -5 87 -8 122 -9 l64 0 13 58 c17 71 54 151
93 198 24 29 36 35 55 32 l26 -5 -35 -41 c-61 -71 -123 -230 -97 -246 8 -5 9
-17 2 -41 -16 -56 -12 -200 7 -255 17 -52 99 -145 128 -145 18 0 18 -1 0 43
-18 43 -20 150 -4 197 9 24 14 29 20 18 11 -20 79 -208 79 -219 0 -11 -87
-109 -92 -103 -3 2 -31 -3 -64 -11 -74 -20 -152 -71 -201 -132 -21 -27 -44
-48 -52 -48 -17 0 -81 -113 -74 -131 2 -7 -7 -32 -21 -57 -14 -24 -23 -47 -19
-50 3 -4 21 -7 39 -7 24 0 38 7 53 28 11 15 27 34 35 42 23 25 77 140 66 140
-16 0 4 32 47 75 34 34 131 90 141 81 2 -2 -51 -74 -118 -159 l-120 -155 16
-35 c9 -20 25 -38 35 -40 11 -3 16 -1 13 5 -6 10 332 361 354 366 21 6 147
-130 187 -202 63 -113 77 -174 72 -301 -3 -75 -13 -141 -31 -209 -40 -150 -34
-215 27 -304 39 -59 150 -128 267 -168 140 -47 201 -78 241 -121 85 -91 118
-174 128 -321 l6 -103 -25 -5 c-141 -29 -239 -159 -240 -317 0 -95 78 -198
178 -233 30 -11 53 -26 55 -36 3 -11 15 -18 30 -18 19 0 26 -6 29 -22 2 -17
10 -23 28 -23 18 0 26 6 28 23 3 17 10 22 33 22 16 0 29 5 29 10 0 6 38 10 94
10 51 0 107 5 124 11 27 9 36 7 81 -25 102 -70 218 -70 321 -1 28 19 62 35 77
37 38 4 80 76 89 150 9 77 -22 179 -76 247 -25 31 -40 61 -40 78 -1 80 -77
164 -167 184 -48 11 -74 9 -241 -19 -103 -18 -204 -32 -224 -32 -37 0 -38 1
-38 34 0 34 -1 35 -47 38 l-47 3 -12 70 c-6 39 -10 82 -8 97 2 15 -2 30 -7 34
-6 4 -5 12 3 22 12 15 11 16 -5 3 -13 -11 -15 -17 -6 -28 7 -7 9 -16 6 -19 -3
-3 -11 5 -18 18 -6 12 -15 25 -19 28 -3 3 -20 26 -37 51 -36 52 -122 132 -172
159 -20 10 -226 86 -266 97 -41 12 -105 65 -130 107 -41 69 -41 114 -5 261 42
168 46 316 12 410 -37 98 -100 195 -179 273 l-74 73 35 39 c20 22 38 51 42 64
3 14 -3 78 -15 142 l-20 118 37 32 c36 31 37 34 37 100 0 66 -2 73 -54 157
l-54 87 21 54 c28 74 17 115 -41 153 -23 16 -50 45 -61 67 -17 35 -18 46 -7
115 18 123 15 165 -16 202 -52 61 -225 123 -257 92z m-134 -204 c16 -11 35
-36 43 -55 15 -37 46 -54 99 -54 18 0 41 -7 52 -15 18 -14 18 -16 2 -28 -25
-19 -31 -83 -15 -144 l14 -53 -83 0 -84 0 0 40 c0 38 -2 40 -30 40 -34 0 -42
12 -69 102 -37 122 -35 185 6 230 18 20 18 20 27 -11 5 -18 22 -41 38 -52z
m2043 -3199 c90 -44 128 -153 86 -245 -60 -131 -221 -152 -318 -42 -54 61 -57
155 -8 229 48 73 156 99 240 58z"/>
<path d="M3389 402 l-32 -28 46 -38 c44 -36 77 -43 77 -16 0 13 -48 110 -55
110 -3 0 -19 -13 -36 -28z"/>
<path d="M3546 373 c-62 -66 -43 -99 35 -63 55 26 61 45 25 79 l-24 22 -36
-38z"/>
<path d="M3388 250 c-49 -26 -51 -33 -27 -64 28 -35 40 -33 78 15 52 63 25 89
-51 49z"/>
<path d="M3504 249 c-10 -17 37 -109 56 -109 18 0 50 30 50 47 0 15 -68 73
-85 73 -7 0 -17 -5 -21 -11z"/>
<path d="M2722 3394 c-23 -14 -42 -28 -42 -31 0 -2 9 -18 21 -34 48 -68 99
-244 99 -345 l0 -46 123 7 c67 4 133 9 147 10 14 1 37 3 53 3 33 2 34 12 12
136 -19 110 -46 188 -81 234 l-28 35 -18 -53 c-10 -29 -19 -55 -21 -57 -2 -1
-26 4 -54 12 -68 20 -131 68 -152 115 l-17 39 -42 -25z"/>
<path d="M2527 3312 c-35 -20 -65 -51 -112 -117 -65 -92 -155 -251 -155 -276
0 -8 21 -28 48 -46 48 -33 192 -103 211 -103 16 0 13 -23 -7 -77 -18 -45 -18
-56 -5 -168 8 -66 17 -138 21 -160 l7 -39 43 44 c91 95 136 246 130 441 -2 87
0 117 11 125 11 9 11 27 -2 115 -18 117 -37 184 -73 247 -30 51 -49 53 -117
14z"/>
<path d="M3140 3316 c0 -2 11 -28 24 -57 24 -54 56 -185 56 -233 0 -14 7 -51
15 -83 8 -31 16 -98 16 -148 1 -70 3 -81 8 -48 4 24 9 44 12 46 2 1 23 15 47
30 23 15 42 30 42 33 0 2 -16 47 -35 98 -21 56 -35 112 -35 139 0 78 -44 157
-112 202 -21 14 -38 24 -38 21z"/>
<path d="M3944 3087 c-2 -7 2 -59 11 -115 8 -56 15 -115 15 -132 0 -19 5 -30
14 -30 24 0 28 -18 15 -55 -14 -37 -12 -54 31 -375 18 -135 187 -1485 206
-1644 4 -35 3 -61 -3 -65 -7 -4 -6 -40 3 -106 7 -55 13 -112 14 -127 l0 -28
-92 0 c-51 0 -99 -4 -106 -9 -19 -12 -32 -77 -18 -92 8 -9 7 -11 -6 -6 -9 3
-19 0 -22 -8 -5 -14 18 -9 69 15 25 12 285 18 278 7 -3 -5 4 -4 15 2 25 13
176 15 168 2 -8 -13 23 -22 41 -12 9 4 25 7 37 4 20 -3 20 -3 1 6 -11 5 -27 5
-37 0 -24 -13 -25 -13 -26 32 -3 63 -12 69 -108 69 -46 0 -84 1 -84 3 0 50
-34 253 -44 261 -9 8 -48 291 -127 925 -113 905 -114 913 -137 922 -15 6 -22
15 -18 24 3 8 0 17 -5 21 -6 3 -8 17 -5 29 3 13 1 27 -5 31 -6 3 -9 15 -6 25
3 11 1 19 -5 19 -5 0 -8 10 -6 23 2 14 11 23 27 25 19 3 22 8 18 30 -3 15 -13
98 -23 185 l-18 157 -28 0 c-16 0 -31 -6 -34 -13z"/>
<path d="M2993 2843 c9 -2 23 -2 30 0 6 3 -1 5 -18 5 -16 0 -22 -2 -12 -5z"/>
<path d="M1450 2700 c0 -6 7 -10 15 -10 8 0 15 2 15 4 0 2 -7 6 -15 10 -8 3
-15 1 -15 -4z"/>
<path d="M1362 2300 c0 -14 2 -19 5 -12 2 6 2 18 0 25 -3 6 -5 1 -5 -13z"/>
<path d="M1332 2076 c-17 -144 -20 -201 -12 -206 8 -5 4 -19 -11 -45 -22 -37
-22 -38 -4 -51 24 -18 35 -18 35 1 0 8 6 15 14 15 8 0 13 8 12 17 0 10 5 18
13 18 14 0 83 113 78 128 -1 5 -17 15 -35 23 -31 13 -33 12 -45 -13 -10 -23
-13 -1 -17 142 l-5 170 -23 -199z"/>
<path d="M1587 1993 c-9 -8 12 -33 28 -33 7 0 16 7 19 16 3 8 2 12 -3 9 -5 -3
-12 -1 -16 5 -7 11 -19 13 -28 3z m28 -13 c3 -5 2 -10 -4 -10 -5 0 -13 5 -16
10 -3 6 -2 10 4 10 5 0 13 -4 16 -10z"/>
<path d="M1601 1934 c0 -11 3 -14 6 -6 3 7 2 16 -1 19 -3 4 -6 -2 -5 -13z"/>
<path d="M2901 1854 c0 -11 3 -14 6 -6 3 7 2 16 -1 19 -3 4 -6 -2 -5 -13z"/>
<path d="M2911 1694 c0 -11 3 -14 6 -6 3 7 2 16 -1 19 -3 4 -6 -2 -5 -13z"/>
<path d="M2862 1650 c0 -14 2 -19 5 -12 2 6 2 18 0 25 -3 6 -5 1 -5 -13z"/>
<path d="M2861 1504 c0 -11 3 -14 6 -6 3 7 2 16 -1 19 -3 4 -6 -2 -5 -13z"/>
<path d="M2882 1480 c0 -14 2 -19 5 -12 2 6 2 18 0 25 -3 6 -5 1 -5 -13z"/>
<path d="M2872 1230 c0 -14 2 -19 5 -12 2 6 2 18 0 25 -3 6 -5 1 -5 -13z"/>
<path d="M1631 1214 c0 -11 3 -14 6 -6 3 7 2 16 -1 19 -3 4 -6 -2 -5 -13z"/>
<path d="M530 417 l-75 -142 -159 -3 c-97 -1 -165 -7 -173 -13 -7 -7 -13 -22
-13 -35 0 -22 -4 -24 -55 -24 l-55 0 0 -55 0 -55 410 0 410 0 0 43 c0 55 -13
67 -72 67 -38 0 -50 4 -54 17 -12 39 -23 48 -58 51 -20 2 -36 7 -36 12 0 5 25
55 56 111 30 56 53 108 50 115 -5 13 -77 54 -93 54 -4 0 -42 -64 -83 -143z"/>
<path d="M3987 329 c4 -13 8 -18 11 -10 2 7 -1 18 -6 23 -8 8 -9 4 -5 -13z"/>
<path d="M3890 320 c0 -5 5 -10 11 -10 5 0 7 5 4 10 -3 6 -8 10 -11 10 -2 0
-4 -4 -4 -10z"/>
<path d="M3959 322 c7 -5 10 -15 7 -21 -4 -6 -2 -11 4 -11 17 0 8 33 -10 37
-12 4 -13 3 -1 -5z"/>
<path d="M4658 323 c7 -3 16 -2 19 1 4 3 -2 6 -13 5 -11 0 -14 -3 -6 -6z"/>
<path d="M4429 312 c9 -7 10 -11 2 -15 -7 -4 -8 -5 0 -3 15 2 13 20 -3 24 -10
3 -10 2 1 -6z"/>
<path d="M4118 303 c12 -2 30 -2 40 0 9 3 -1 5 -23 4 -22 0 -30 -2 -17 -4z"/>
<path d="M4213 303 c9 -2 23 -2 30 0 6 3 -1 5 -18 5 -16 0 -22 -2 -12 -5z"/>
<path d="M4838 303 c7 -3 16 -2 19 1 4 3 -2 6 -13 5 -11 0 -14 -3 -6 -6z"/>
<path d="M3846 292 c-3 -5 8 -6 25 -4 16 2 29 6 29 8 0 8 -49 4 -54 -4z"/>
<path d="M4540 280 c0 -5 5 -10 11 -10 5 0 7 5 4 10 -3 6 -8 10 -11 10 -2 0
-4 -4 -4 -10z"/>
<path d="M4780 286 c0 -9 50 -12 62 -5 8 6 -1 9 -24 9 -21 0 -38 -2 -38 -4z"/>
<path d="M3885 260 c5 -27 14 -40 26 -40 6 0 3 7 -5 16 -9 8 -14 19 -11 24 3
5 1 11 -4 15 -6 3 -8 -3 -6 -15z"/>
<path d="M3965 271 c-9 -15 13 -23 32 -11 15 9 14 10 -6 4 -16 -4 -21 -3 -17
5 4 6 5 11 2 11 -3 0 -7 -4 -11 -9z"/>
<path d="M3855 260 c-3 -5 -1 -10 4 -10 6 0 11 5 11 10 0 6 -2 10 -4 10 -3 0
-8 -4 -11 -10z"/>
<path d="M3928 253 c7 -3 16 -2 19 1 4 3 -2 6 -13 5 -11 0 -14 -3 -6 -6z"/>
<path d="M4510 250 c8 -5 22 -9 30 -9 10 0 8 3 -5 9 -27 12 -43 12 -25 0z"/>
<path d="M4674 252 c3 -6 -2 -13 -11 -15 -16 -4 -16 -5 -1 -6 21 -1 32 15 17
25 -7 4 -9 3 -5 -4z"/>
<path d="M4748 253 c7 -3 16 -2 19 1 4 3 -2 6 -13 5 -11 0 -14 -3 -6 -6z"/>
<path d="M4240 240 c-8 -5 -10 -10 -5 -10 6 0 17 5 25 10 8 5 11 10 5 10 -5 0
-17 -5 -25 -10z"/>
<path d="M1560 220 c-37 -5 -232 -77 -264 -97 -24 -15 40 -20 164 -12 74 4
147 8 163 8 21 1 27 6 27 24 0 19 -35 89 -42 86 -2 -1 -23 -5 -48 -9z"/>
<path d="M1938 172 c-35 -26 -62 -52 -60 -57 2 -10 199 -8 215 2 10 6 9 47 -3
77 -8 22 -16 26 -49 26 -32 0 -52 -9 -103 -48z"/>
<path d="M2330 212 c-23 -7 -70 -53 -87 -85 -26 -51 -15 -57 105 -57 60 0 111
3 115 6 8 9 -36 95 -59 115 -22 19 -53 28 -74 21z"/>
</g>
</svg>
