<svg width="79" height="79" viewBox="0 0 79 79" fill="none" xmlns="http://www.w3.org/2000/svg">
<path d="M0 4C0 1.79086 1.79086 0 4 0H78.24V78.24H4C1.79086 78.24 0 76.4491 0 74.24V4Z" fill="#FF6B00"/>
<g clip-path="url(#clip0_634_405)">
<path d="M73 43.0862C73 22.3755 62.4406 3 42.7381 3C23.0356 3 11 21.0824 11 41.7931C11 62.5038 23.0356 78 42.7381 78C62.4406 78 73 63.7969 73 43.0862Z" fill="#FF6B00"/>
<path d="M26.9688 49.5938C30.0322 49.5938 32.5156 47.1103 32.5156 44.0469C32.5156 40.9834 30.0322 38.5 26.9688 38.5C23.9053 38.5 21.4219 40.9834 21.4219 44.0469C21.4219 47.1103 23.9053 49.5938 26.9688 49.5938Z" fill="#F0BD70"/>
<path d="M26.9688 48.4844H45.8281V76.0745C45.8281 76.0745 41.7867 78.4375 36.3984 78.4375C31.0102 78.4375 26.9688 74.5802 26.9688 74.5802V48.4844Z" fill="#F0BD70"/>
<path d="M45.8282 62.7599C45.8282 69.0323 44.8497 68.4376 38.4874 68.4376C32.1252 68.4376 29.1898 63.3534 29.1898 57.0809C29.1898 50.8085 28.9479 45.1562 34.0821 45.1562C48.6016 45.7109 45.8282 56.4874 45.8282 62.7599Z" fill="#E9B05B"/>
<path d="M57.905 43.0484C57.905 52.9462 61.9941 65.1172 44.1643 65.1172C26.3344 65.1172 26.3344 52.9462 26.3344 43.0484C23.6408 31.289 24.1955 17.4219 42.5002 17.4219C60.8049 17.4219 57.905 33.1495 57.905 43.0484Z" fill="#FFCB7E"/>
<path d="M49.1562 48.4844H48.0469C47.4342 48.4844 46.9375 48.9811 46.9375 49.5938C46.9375 50.2064 47.4342 50.7031 48.0469 50.7031H49.1562C49.7689 50.7031 50.2656 50.2064 50.2656 49.5938C50.2656 48.9811 49.7689 48.4844 49.1562 48.4844Z" fill="#F0BD70"/>
<path d="M49.1562 69.5625H24.75C19.2358 69.5625 14.7656 71.4858 14.7656 77V85.0938C14.7656 90.608 19.2358 95.0781 24.75 95.0781H49.1562C54.6705 95.0781 59.1406 90.608 59.1406 85.0938V79.5469C59.1406 74.0327 54.6705 69.5625 49.1562 69.5625Z" fill="#55FF00"/>
<path fill-rule="evenodd" clip-rule="evenodd" d="M57.9958 39.0358C58.9166 38.5161 59.6215 37.6847 59.9835 36.6913C60.3456 35.6979 60.3409 34.6078 59.9704 33.6176C60.9832 33.1294 61.7728 32.2749 62.1798 31.227C62.5869 30.179 62.581 29.0156 62.1633 27.9718C61.7457 26.928 60.9474 26.0817 59.9298 25.6037C58.9122 25.1258 57.7511 25.052 56.6812 25.3971C58.2531 29.4729 58.1378 34.5139 57.9958 39.0358Z" fill="#47280B"/>
<path fill-rule="evenodd" clip-rule="evenodd" d="M47.267 28.2494C46.256 29.1381 44.9554 29.6273 43.6094 29.625C42.3817 29.627 41.1884 29.2199 40.218 28.468C39.4979 29.1878 38.6429 29.7585 37.702 30.1474C36.761 30.5363 35.7526 30.7358 34.7344 30.7344C33.9656 30.7349 33.2011 30.6213 32.4657 30.3972C32.1765 30.7136 31.8433 30.9868 31.4761 31.2081C31.9129 31.7278 32.2246 32.3407 32.3872 32.9997C32.5499 33.6587 32.5592 34.3463 32.4144 35.0095C32.2697 35.6727 31.9747 36.2938 31.5522 36.8251C31.1297 37.3564 30.5909 37.7836 29.9774 38.074C30.1605 38.3249 30.2697 38.6219 30.2928 38.9316C30.3159 39.2413 30.2518 39.5513 30.1079 39.8265C29.9639 40.1016 29.7459 40.3311 29.4783 40.4887C29.2108 40.6464 28.9045 40.7261 28.594 40.7188C28.0501 41.665 27.1767 42.3777 26.1405 42.7205C25.1043 43.0633 23.9782 43.0123 22.9773 42.5771C21.9764 42.1419 21.171 41.3532 20.715 40.3616C20.259 39.37 20.1844 38.2452 20.5055 37.2021C20.0921 36.7905 19.7642 36.3012 19.5407 35.7624C19.3172 35.2236 19.2025 34.6459 19.2031 34.0625C19.2031 32.8356 19.7012 31.7251 20.5055 30.923C20.2913 30.2222 20.2539 29.4792 20.3968 28.7605C20.5396 28.0417 20.8583 27.3695 21.3243 26.8039C20.7471 25.787 20.407 24.6529 20.3292 23.4862C20.2514 22.3195 20.438 21.1503 20.875 20.0658C21.312 18.9812 21.9882 18.0093 22.8532 17.2225C23.7181 16.4357 24.7495 15.8542 25.8705 15.5215C25.8128 14.7243 25.9716 13.9262 26.33 13.2117C26.6884 12.4973 27.2332 11.8928 27.9067 11.4624C28.5803 11.0319 29.3576 10.7914 30.1565 10.7662C30.9555 10.741 31.7464 10.9321 32.4457 11.3192C33.1273 10.1386 34.1077 9.15818 35.2885 8.47677C36.4692 7.79535 37.8086 7.43692 39.1719 7.43753C40.695 7.43753 42.1162 7.87573 43.3154 8.63454C44.1391 7.74717 45.173 7.08143 46.3217 6.69869C47.4704 6.31595 48.697 6.22852 49.8884 6.44447C51.0797 6.66043 52.1976 7.1728 53.1389 7.93437C54.0801 8.69595 54.8146 9.68221 55.2745 10.8023C55.8613 10.8783 56.4271 11.071 56.9384 11.369C57.4497 11.667 57.8962 12.0642 58.2517 12.5373C58.6072 13.0105 58.8645 13.5499 59.0084 14.124C59.1522 14.698 59.1799 15.295 59.0896 15.8799C61.1475 17.4042 62.4688 19.7649 62.4688 22.4141C62.4688 27.0091 58.495 30.7344 53.5938 30.7344C51.1165 30.7344 48.8767 29.7826 47.267 28.2494Z" fill="#47280B"/>
<path d="M39.0933 54.0312C39.0933 53.737 39.2101 53.4549 39.4182 53.2468C39.6262 53.0388 39.9084 52.9219 40.2026 52.9219H50.3457C50.6399 52.9219 50.9221 53.0388 51.1301 53.2468C51.3382 53.4549 51.455 53.737 51.455 54.0312C51.455 55.5024 50.8706 56.9132 49.8304 57.9535C48.7902 58.9937 47.3793 59.5781 45.9082 59.5781H44.6401C43.169 59.5781 41.7581 58.9937 40.7179 57.9535C39.6777 56.9132 39.0933 55.5024 39.0933 54.0312Z" fill="#66253C"/>
<path fill-rule="evenodd" clip-rule="evenodd" d="M47.7752 59.2563C47.176 59.47 46.5443 59.5788 45.9081 59.578H44.6401C43.2074 59.578 41.8303 59.0236 40.7971 58.031C39.764 57.0384 39.155 55.6846 39.0977 54.253C39.9452 53.9357 41.2033 53.9723 42.4446 54.0089C42.8396 54.02 43.2323 54.0311 43.6095 54.0311C46.0612 54.0311 48.047 55.7695 48.047 57.9139C48.047 58.3854 47.9505 58.838 47.7752 59.2563Z" fill="#B03E67"/>
<path d="M40.2812 52.9219H51.375V54.0312C51.375 54.3255 51.2581 54.6076 51.0501 54.8157C50.842 55.0237 50.5598 55.1406 50.2656 55.1406H41.3906C41.0964 55.1406 40.8142 55.0237 40.6062 54.8157C40.3981 54.6076 40.2812 54.3255 40.2812 54.0312V52.9219Z" fill="white"/>
<path d="M43.6094 44.6016C43.6094 43.6825 42.8643 42.9375 41.9453 42.9375C41.0263 42.9375 40.2812 43.6825 40.2812 44.6016V45.7109C40.2812 46.63 41.0263 47.375 41.9453 47.375C42.8643 47.375 43.6094 46.63 43.6094 45.7109V44.6016Z" fill="#1B0B47"/>
<path d="M54.7031 44.6016C54.7031 43.6825 53.9581 42.9375 53.0391 42.9375C52.12 42.9375 51.375 43.6825 51.375 44.6016V45.7109C51.375 46.63 52.12 47.375 53.0391 47.375C53.9581 47.375 54.7031 46.63 54.7031 45.7109V44.6016Z" fill="#1B0B47"/>
<path d="M37.5078 46.2656H35.2891C34.37 46.2656 33.625 47.0107 33.625 47.9297C33.625 48.8487 34.37 49.5938 35.2891 49.5938H37.5078C38.4268 49.5938 39.1719 48.8487 39.1719 47.9297C39.1719 47.0107 38.4268 46.2656 37.5078 46.2656Z" fill="#FF859B"/>
<path d="M57.4766 46.2656H56.3672C55.4482 46.2656 54.7031 47.0107 54.7031 47.9297C54.7031 48.8487 55.4482 49.5938 56.3672 49.5938H57.4766C58.3956 49.5938 59.1406 48.8487 59.1406 47.9297C59.1406 47.0107 58.3956 46.2656 57.4766 46.2656Z" fill="#FF859B"/>
</g>
<defs>
<clipPath id="clip0_634_405">
<rect x="7" y="3" width="71" height="71" rx="35.5" fill="white"/>
</clipPath>
</defs>
</svg>
