<svg width="31" height="43" viewBox="0 0 31 43" fill="none" xmlns="http://www.w3.org/2000/svg">
<path d="M27.9808 8.90841C27.923 8.61769 27.7065 8.35047 27.3714 8.15614C27.0362 7.96182 26.6049 7.85351 26.1573 7.85123H19.2519C18.7576 7.85637 18.2862 7.98858 17.9395 8.21933C17.5927 8.45008 17.3984 8.76086 17.3985 9.08461V15.1537C17.3997 16.2629 16.8777 17.3454 15.9039 18.253C14.93 19.1606 13.5519 19.8491 11.9579 20.2242C8.44005 21.0387 5.39766 22.5514 3.25438 24.5516C1.11111 26.5518 -0.0263338 28.9399 0.000462811 31.3834V39.9976C0.000434827 40.7263 0.440406 41.4255 1.22441 41.9426C2.00842 42.4597 3.07285 42.7528 4.18555 42.758H26.7551C27.8758 42.758 28.951 42.4678 29.7462 41.9507C30.5414 41.4336 30.9921 40.7315 31 39.9976V24.0223L27.9808 8.90841Z" fill="black"/>
<path d="M26.187 0H8.25095C7.69598 0 7.16373 0.144384 6.7713 0.401389C6.37887 0.658395 6.15841 1.00697 6.15841 1.37043C5.71443 1.37043 5.28863 1.48594 4.97469 1.69154C4.66074 1.89714 4.48438 2.176 4.48438 2.46677C4.48438 2.75754 4.66074 3.0364 4.97469 3.242C5.28863 3.44761 5.71443 3.56312 6.15841 3.56312C6.16614 3.925 6.38908 4.27064 6.77985 4.52656C7.17061 4.78247 7.69838 4.92848 8.25095 4.93354H12.4061C12.3841 6.66387 11.662 8.35944 10.3136 9.84751C10.1122 10.0664 10.0495 10.3282 10.1389 10.5769C10.2283 10.8257 10.4626 11.0417 10.7919 11.1788C10.9464 11.243 11.1189 11.2864 11.2994 11.3064C11.4798 11.3265 11.6646 11.3227 11.8427 11.2953C12.0209 11.268 12.189 11.2176 12.3371 11.1472C12.4851 11.0767 12.6103 10.9876 12.7051 10.8851C14.379 9.07671 15.287 7.00889 15.3357 4.89439H17.787V5.67749C17.787 5.89038 17.9161 6.09454 18.146 6.24507C18.3758 6.3956 18.6875 6.48017 19.0126 6.48017H26.1273C26.4523 6.48017 26.7641 6.3956 26.9939 6.24507C27.2238 6.09454 27.3529 5.89038 27.3529 5.67749V4.89439C27.8841 4.89439 28.3935 4.75619 28.7691 4.5102C29.1447 4.26421 29.3557 3.93058 29.3557 3.58269V1.89902C29.2459 1.39092 28.8697 0.923645 28.2916 0.577206C27.7135 0.230767 26.9695 0.0267182 26.187 0Z" fill="black"/>
</svg>
