<svg width="68" height="68" viewBox="0 0 68 68" fill="none" xmlns="http://www.w3.org/2000/svg">
<rect y="0.0441589" width="67.31" height="67.2623" rx="33.6312" fill="white"/>
<path d="M12.6206 0.0441589H54.6894C58.1701 0.0441589 61.1437 1.27655 63.6102 3.74133C66.0767 6.20612 67.31 9.17762 67.31 12.6558V54.6948C67.31 58.173 66.0767 61.1445 63.6102 63.6093C61.1437 66.0741 58.1701 67.3065 54.6894 67.3065H12.6206C9.13994 67.3065 6.16633 66.0741 3.6998 63.6093C1.23327 61.1445 0 58.173 0 54.6948V12.6558C0 9.17762 1.23327 6.20612 3.6998 3.74133C6.16633 1.27655 9.13994 0.0441589 12.6206 0.0441589ZM11.2309 33.6753C11.2309 37.7291 12.2325 41.4763 14.2358 44.917C16.239 48.3577 18.9622 51.0789 22.4054 53.0808C25.8485 55.0827 29.5984 56.0836 33.655 56.0836C38.4629 56.0836 42.7261 54.8512 46.4446 52.3864C50.1632 49.9216 52.8238 46.5748 54.4264 42.3459C55.1777 40.319 54.8897 39.3055 53.5625 39.3055H46.5761C46.0753 39.3055 45.6746 39.3556 45.3741 39.4557C45.0737 39.5558 44.8733 39.6496 44.7732 39.7372C44.673 39.8248 44.4852 40.0687 44.2097 40.4691C43.9343 40.8695 43.7089 41.1823 43.5336 41.4075C42.3567 42.9089 40.9043 44.0975 39.1765 44.9733C37.4487 45.8491 35.5831 46.287 33.5799 46.287C30.0741 46.287 27.088 45.0546 24.6215 42.5898C22.155 40.125 20.9217 37.1535 20.9217 33.6753C20.9217 30.1971 22.155 27.2256 24.6215 24.7608C27.088 22.296 30.0741 21.0636 33.5799 21.0636C35.5831 21.0636 37.4487 21.5015 39.1765 22.3774C40.9043 23.2532 42.3567 24.4418 43.5336 25.9432C43.6839 26.1433 43.8467 26.3685 44.0219 26.6188L44.4163 27.1818L44.7356 27.5759L45.1488 27.8574L45.731 27.9888L46.5761 28.0451H53.5625C54.8897 28.0451 55.1777 27.0317 54.4264 25.0048C52.8238 20.7759 50.1632 17.429 46.4446 14.9642C42.7261 12.4994 38.4629 11.2671 33.655 11.2671C29.5984 11.2671 25.8485 12.268 22.4054 14.2698C18.9622 16.2717 16.239 18.993 14.2358 22.4337C12.2325 25.8743 11.2309 29.6216 11.2309 33.6753Z" fill="#33CEFF"/>
</svg>
