<svg width="70" height="70" viewBox="0 0 70 70" fill="none" xmlns="http://www.w3.org/2000/svg">
<path d="M19.6659 1.74457C19.4143 1.8977 19.5565 15.0938 19.7151 15.3618C19.912 15.6954 22.5096 18.118 24.8229 20.136C26.6331 21.711 28.2299 20.6063 28.5307 20.6063C29.2143 20.6063 40.6987 20.7321 41.0432 20.7321C41.1854 20.7321 43.2198 21.9188 44.9315 20.4641C47.3651 18.386 50.2909 15.7774 50.3401 15.3946C50.3893 15.0227 50.3948 1.90864 50.2143 1.79379C50.1323 1.7391 48.0596 1.70629 45.1666 1.67348C42.7057 1.64614 37.6909 2.90942 34.4916 2.89848C30.3901 2.88754 28.044 1.60785 24.8502 1.6352C21.9245 1.65707 19.7588 1.68442 19.6659 1.74457Z" fill="#176BC6"/>
<path d="M24.8392 1.6187L24.8228 20.1359C24.8228 20.1359 25.7196 20.9343 26.622 21.6726C27.4751 22.3726 28.3337 23.0125 28.3993 23.007C28.9954 22.9632 41.3931 23.2695 41.6501 23.1437C41.7923 23.0726 42.7165 22.3453 43.586 21.6289C44.2587 21.0711 44.9423 20.4804 44.9423 20.4804L45.1884 1.66245C45.1884 1.66245 43.6353 1.65698 41.6009 1.64058C41.59 1.64058 36.5368 2.2312 34.6228 2.23667C32.3259 2.24214 30.2259 1.60229 28.2024 1.60229C25.8618 1.60229 24.8392 1.6187 24.8392 1.6187Z" fill="white"/>
<path d="M28.3389 23.0234C27.9944 22.7664 28.1967 1.60233 28.1967 1.60233C28.1967 1.60233 30.4608 1.57499 35.2678 1.59686C39.4569 1.61327 41.6006 1.64061 41.6006 1.64061C41.6006 1.64061 41.7975 22.7719 41.5842 23.1164C41.3709 23.4609 37.8655 25.2109 35.4702 25.2492C33.0749 25.2875 28.5084 23.1547 28.3389 23.0234Z" fill="#DB0D2A"/>
<path d="M35.1367 28.7329C36.2742 28.6673 41.8414 23.286 41.7375 23.111C41.6664 22.9907 38.3523 22.9743 35.0055 22.9579C31.6586 22.9415 28.2953 22.8704 28.2789 22.9907C28.2516 23.2259 33.7367 28.815 35.1367 28.7329Z" fill="#FBC21F"/>
<path d="M34.9945 27.7922C34.6171 27.7922 34.3601 28.5032 34.1359 28.9844C33.9117 29.4657 28.2624 42.0711 28.1913 42.186C28.1148 42.2954 15.4218 42.4102 14.8257 42.4868C14.2296 42.5633 13.7921 42.7821 13.7921 43.0446C13.7921 43.3071 13.7101 43.843 14.0437 44.1C14.3773 44.3625 24.664 52.8719 24.664 53.0579C24.664 53.2438 21.3062 66.7024 21.3445 67.0032C21.3827 67.3039 21.5742 67.6211 21.7984 67.8071C22.0226 67.993 22.1757 67.9875 22.5531 67.9055C23.2585 67.7524 34.382 60.9219 34.5351 60.9602C34.6828 60.9985 46.1179 67.7196 46.4132 67.7579C46.714 67.7961 47.0476 67.7579 47.2664 67.6047C47.4851 67.4516 47.7093 66.8664 47.5945 66.4563C47.4851 66.0461 45.1773 54.1844 45.2539 53.9602C45.3304 53.736 55.1359 45.2704 55.3218 44.8985C55.5078 44.5266 55.1523 43.6516 54.8187 43.3891C54.4851 43.1266 41.8906 42.2297 41.6281 42.0821C41.3656 41.9344 36.1484 29.0993 36.0773 28.8368C36.0062 28.5743 35.4046 27.7922 34.9945 27.7922Z" fill="#FBC21F"/>
<path d="M29.7773 42.257C29.7773 42.5414 33.3211 49.6016 33.5453 49.6016C33.7695 49.6016 35.1094 49.0437 35.1094 49.0437C35.1094 49.0437 35.1477 30.8875 35.0328 31.0734C34.9234 31.2594 29.7773 41.6609 29.7773 42.257Z" fill="#FDEFAA"/>
<path d="M37.1601 49.7546C37.0179 49.5796 40.4413 44.0507 40.8898 43.8648C41.3382 43.6789 53.3804 44.3843 53.3421 44.6468C53.3038 44.9039 37.3077 49.9406 37.1601 49.7546Z" fill="#FDEFAA"/>
<path d="M26.0861 53.2602C25.9056 53.4188 23.2533 64.5586 23.401 64.8156C23.5486 65.0781 33.2447 53.3695 33.2064 53.1453C33.1681 52.9211 33.2447 50.832 33.2447 50.832C33.2447 50.832 26.3814 52.9977 26.0861 53.2602Z" fill="#FDEFAA"/>
<path d="M36.1045 49.0493C36.0662 48.9344 35.7436 47.4415 35.667 47.0422C35.5904 46.6649 35.3279 46.2493 34.9506 46.2493C34.5896 46.2493 34.3162 46.6376 34.1959 47.1571C34.0264 47.8735 33.7639 49.0493 33.7639 49.0493C33.7639 49.0493 32.3639 48.929 32.0467 48.918C31.5545 48.9016 30.9693 48.9344 30.8764 49.3719C30.8162 49.6399 30.9037 49.9954 31.631 50.4493C32.2381 50.8266 32.9545 51.2423 32.9545 51.2423C32.9545 51.2423 32.7412 52.0352 32.5771 52.7516C32.4842 53.1673 32.2545 53.9438 32.6537 54.1516C33.0475 54.3594 33.5068 54.0204 33.9553 53.5829L34.9178 52.6587C34.9178 52.6587 35.76 53.2985 36.0772 53.5555C36.46 53.8673 37.0615 54.0641 37.3623 53.8016C37.685 53.5173 37.6139 53.0469 37.4389 52.5329C37.2475 51.986 36.8701 51.1712 36.8701 51.1712C36.8701 51.1712 38.1717 50.3508 38.4123 50.1813C38.6584 50.0118 38.9428 49.6126 38.7732 49.1805C38.6584 48.8852 38.1662 48.7813 37.7506 48.8579C37.335 48.9344 36.1045 49.0493 36.1045 49.0493Z" fill="#F6922C"/>
<path d="M40.3267 48.7047C40.5126 49.3664 41.1689 49.2352 42.3337 48.9399C43.4931 48.65 54.4744 45.2649 54.8463 45.1391C55.2509 45.0024 55.8744 44.5321 55.6884 43.9797C55.5025 43.4219 54.9228 43.2906 54.2611 43.4492C53.5994 43.6078 42.7001 47.2774 41.9837 47.5399C41.5189 47.7149 40.1408 48.043 40.3267 48.7047Z" fill="#F6922C"/>
<path d="M35.0219 44.3569C35.7055 44.2803 35.6563 42.8256 35.7493 41.6334C35.8422 40.4413 36.0063 28.7874 36.0063 28.3936C36.0063 27.967 35.7493 27.2834 35.1641 27.2834C34.5789 27.2834 34.2782 27.7319 34.218 28.4045C34.1578 29.0827 34.2125 40.6928 34.2563 41.4475C34.3328 42.6506 34.3711 44.4334 35.0219 44.3569Z" fill="#F6922C"/>
<path d="M29.1373 48.5735C29.3069 47.9118 27.9889 47.436 26.8842 46.9766C25.7795 46.5118 15.3834 42.8204 15.0061 42.6946C14.6014 42.5633 13.9178 42.5688 13.7319 43.1212C13.5459 43.679 13.8358 44.1219 14.4592 44.3954C15.0827 44.6688 25.4241 48.1962 26.1569 48.393C27.3217 48.6993 28.9623 49.2571 29.1373 48.5735Z" fill="#F6922C"/>
<path d="M31.757 55.2234C31.1718 54.8624 30.3132 55.7921 29.5039 56.6781C28.6945 57.564 21.7929 66.2375 21.5468 66.5492C21.2843 66.8883 21.0218 67.6265 21.4867 67.982C21.9461 68.3429 22.5039 68.1297 22.9687 67.632C23.4336 67.1344 30.1929 58.5156 30.6195 57.8867C31.2976 56.8968 32.3148 55.5679 31.757 55.2234Z" fill="#F6922C"/>
<path d="M38.2213 55.0375C37.7072 55.4914 38.4838 56.4211 39.0963 57.4493C39.7088 58.4774 45.7463 67.107 45.976 67.4297C46.2221 67.7797 46.851 68.2445 47.3323 67.9055C47.8135 67.5664 47.7698 66.9758 47.4307 66.3906C47.0916 65.8055 40.7752 57.1539 40.2994 56.5633C39.5393 55.6282 38.7135 54.6055 38.2213 55.0375Z" fill="#F6922C"/>
</svg>
