<svg width="45" height="44" viewBox="0 0 45 44" fill="none" xmlns="http://www.w3.org/2000/svg">
<path d="M41.6115 20.0894C42.0564 19.7579 42.3865 19.2955 42.5554 18.7669C42.7242 18.2384 42.7235 17.6703 42.5532 17.1422C42.3829 16.6141 42.0516 16.1526 41.6057 15.8223C41.1599 15.492 40.6218 15.3095 40.067 15.3005L29.292 14.8934C29.2391 14.8898 29.1883 14.8709 29.1458 14.839C29.1033 14.8071 29.0709 14.7637 29.0526 14.7138L25.3292 4.65718C25.1422 4.14554 24.8024 3.70373 24.3559 3.39159C23.9094 3.07945 23.3778 2.91205 22.833 2.91205C22.2883 2.91205 21.7566 3.07945 21.3102 3.39159C20.8637 3.70373 20.5239 4.14554 20.3368 4.65718L16.6254 14.7498C16.6071 14.7996 16.5747 14.8431 16.5322 14.8749C16.4898 14.9068 16.439 14.9257 16.386 14.9293L5.61098 15.3364C5.0562 15.3455 4.51816 15.5279 4.0723 15.8582C3.62645 16.1885 3.29515 16.65 3.12484 17.1781C2.95454 17.7062 2.95377 18.2743 3.12266 18.8028C3.29154 19.3314 3.6216 19.7938 4.06657 20.1253L12.519 26.7699C12.5613 26.8032 12.5929 26.8481 12.6099 26.8992C12.6269 26.9503 12.6286 27.0052 12.6147 27.0572L9.70548 37.3653C9.55473 37.8902 9.56933 38.4488 9.74731 38.9651C9.92529 39.4814 10.258 39.9304 10.7002 40.2509C11.1424 40.5714 11.6726 40.748 12.2186 40.7565C12.7647 40.765 13.3001 40.6051 13.7521 40.2985L22.6834 34.3124C22.7274 34.282 22.7796 34.2657 22.833 34.2657C22.8865 34.2657 22.9387 34.282 22.9827 34.3124L31.914 40.2985C32.3598 40.6155 32.8933 40.7859 33.4404 40.7859C33.9875 40.7859 34.521 40.6155 34.9669 40.2985C35.4092 39.981 35.7422 39.5342 35.9202 39.0197C36.0981 38.5051 36.1122 37.9481 35.9606 37.4251L33.0274 27.0812C33.0118 27.0292 33.0127 26.9738 33.0298 26.9223C33.047 26.8709 33.0796 26.826 33.1231 26.7938L41.6115 20.0894Z" fill="#FFC700"/>
</svg>
