<svg width="200" height="201" viewBox="0 0 200 201" fill="none" xmlns="http://www.w3.org/2000/svg">
<path d="M163.268 70.3464C163.268 36.1572 135.823 8.44141 101.967 8.44141C68.1119 8.44141 40.6667 36.1572 40.6667 70.3464C40.6667 104.536 68.1119 152.515 101.967 152.515C135.823 152.515 163.268 104.536 163.268 70.3464Z" fill="#4C6FFF"/>
<path d="M75.147 89.6975C80.4369 89.6975 84.7252 85.3669 84.7252 80.0248C84.7252 74.6827 80.4369 70.3521 75.147 70.3521C69.8571 70.3521 65.5688 74.6827 65.5688 80.0248C65.5688 85.3669 69.8571 89.6975 75.147 89.6975Z" fill="#68463C"/>
<path d="M75.1519 87.7607H107.718V135.872C107.718 135.872 100.739 139.993 91.4348 139.993C82.1305 139.993 75.1519 133.267 75.1519 133.267V87.7607Z" fill="#68463C"/>
<path d="M107.342 111.192C107.342 121.61 105.676 120.623 94.8273 120.623C83.9791 120.623 78.9735 112.179 78.9735 101.761C78.9735 91.3458 78.5616 81.9575 87.3161 81.9575C112.072 82.8784 107.342 100.775 107.342 111.192Z" fill="#553329"/>
<path d="M128.572 78.2765C128.572 95.5364 125.917 116.76 104.845 116.76C83.7731 116.76 74.057 95.5364 74.057 78.2765C69.4058 57.7705 70.3636 33.5889 101.972 33.5889C133.58 33.5889 128.572 61.0147 128.572 78.2765Z" fill="#836055"/>
<path d="M113.46 87.7607H111.544C110.486 87.7607 109.628 88.6268 109.628 89.6952C109.628 90.7636 110.486 91.6297 111.544 91.6297H113.46C114.518 91.6297 115.375 90.7636 115.375 89.6952C115.375 88.6268 114.518 87.7607 113.46 87.7607Z" fill="#68463C"/>
<path d="M112.167 124.516H71.8333C62.7206 124.516 65.9999 132.016 65.9999 141.268L78 158.574C78 167.826 95.554 184.158 104.667 184.158L112.167 167.327C121.279 167.327 128.667 159.826 128.667 150.574V141.268C128.667 132.016 121.279 124.516 112.167 124.516Z" fill="#FF4DD8"/>
<path fill-rule="evenodd" clip-rule="evenodd" d="M94.5339 61.5746C109.468 63.7838 135.682 67.6606 138.368 43.2662C140.283 25.8555 114.422 5.54297 86.6453 23.921C69.1938 26.5326 64.828 39.935 63.8338 51.4957C62.4883 52.9304 61.7395 54.8319 61.7419 56.8079C61.7419 57.8332 61.9393 58.814 62.2975 59.7097C61.9393 60.6054 61.7419 61.5862 61.7419 62.6115C61.7419 64.7511 62.6021 66.6876 63.9909 68.0862C63.6696 69.1502 63.5791 70.2717 63.7258 71.3742C63.8725 72.4767 64.2529 73.5343 64.841 74.4749C65.4291 75.4155 66.2111 76.217 67.1336 76.8247C68.0562 77.4325 69.0977 77.8323 70.1872 77.9967C71.2766 78.1612 72.3883 78.0866 73.4466 77.7778C74.5049 77.4691 75.4848 76.9336 76.3196 76.2079C77.1544 75.4821 77.8244 74.5831 78.2839 73.5721C78.7435 72.5612 78.9819 71.462 78.9827 70.3496C80.1519 70.3498 81.3056 70.0797 82.3555 69.5602C83.4054 69.0406 84.3237 68.2853 85.0399 67.3521C85.7562 66.4189 86.2515 65.3325 86.4879 64.1762C86.7243 63.0199 86.6956 61.8242 86.4039 60.6809C86.4843 60.677 86.5648 60.677 86.6453 60.677C88.4689 60.677 91.2236 61.0832 94.5339 61.5746Z" fill="#1B0B47"/>
<path d="M96.0918 97.436C96.0918 96.9229 96.2936 96.4309 96.6529 96.0681C97.0121 95.7053 97.4994 95.5015 98.0074 95.5015H115.522C116.03 95.5015 116.517 95.7053 116.877 96.0681C117.236 96.4309 117.438 96.9229 117.438 97.436C117.438 100.001 116.429 102.462 114.632 104.276C112.836 106.09 110.4 107.109 107.86 107.109H105.67C103.13 107.109 100.693 106.09 98.8972 104.276C97.1009 102.462 96.0918 100.001 96.0918 97.436Z" fill="#66253C"/>
<path fill-rule="evenodd" clip-rule="evenodd" d="M111.08 106.542C110.045 106.915 108.954 107.104 107.856 107.103H105.666C103.192 107.103 100.814 106.136 99.0303 104.405C97.2463 102.674 96.1947 100.314 96.0957 97.8172C97.5593 97.264 99.7316 97.3278 101.875 97.3917C102.557 97.411 103.235 97.4303 103.887 97.4303C108.12 97.4303 111.549 100.462 111.549 104.201C111.549 105.023 111.383 105.813 111.08 106.542Z" fill="#B03E67"/>
<path d="M98.1277 95.5015H117.284V97.436C117.284 97.9491 117.082 98.4411 116.723 98.8039C116.364 99.1667 115.876 99.3705 115.368 99.3705H100.043C99.5353 99.3705 99.048 99.1667 98.6888 98.8039C98.3295 98.4411 98.1277 97.9491 98.1277 97.436V95.5015Z" fill="white"/>
<path d="M103.875 80.9838C103.875 79.3812 102.588 78.082 101.001 78.082C99.4142 78.082 98.1277 79.3812 98.1277 80.9838V82.9183C98.1277 84.521 99.4142 85.8201 101.001 85.8201C102.588 85.8201 103.875 84.521 103.875 82.9183V80.9838Z" fill="#1B0B47"/>
<path d="M123.041 80.9838C123.041 79.3812 121.754 78.082 120.167 78.082C118.58 78.082 117.294 79.3812 117.294 80.9838V82.9184C117.294 84.521 118.58 85.8202 120.167 85.8202C121.754 85.8202 123.041 84.521 123.041 82.9184V80.9838Z" fill="#1B0B47"/>
<path d="M100.001 200.215L94.6676 193.615C81.6943 177.761 29.3343 106.201 29.3343 71.4813C28.5387 53.5845 34.8851 36.1046 46.9774 22.8871C59.0698 9.66949 75.9175 1.79694 93.8143 1.00129C95.7876 0.912403 97.7654 0.912403 99.7476 1.00129C117.644 0.205646 135.124 6.55206 148.342 18.6444C161.559 30.7368 169.432 47.5845 170.228 65.4813C170.317 67.4813 170.317 69.4813 170.228 71.4813C170.228 100.988 134.641 152.961 107.854 189.495L100.001 200.215ZM99.7476 14.148C92.1056 13.7172 84.4588 14.9051 77.3076 17.634C70.1564 20.3628 63.6621 24.5712 58.2498 29.9835C52.8375 35.3958 48.6292 41.8901 45.9003 49.0412C43.1714 56.1924 41.9835 63.8393 42.4143 71.4813C42.4143 95.908 79.201 151.988 99.561 178.601C116.228 155.801 157.094 98.748 157.094 71.4813C157.525 63.8393 156.337 56.1924 153.608 49.0412C150.879 41.8901 146.671 35.3958 141.259 29.9835C135.846 24.5712 129.352 20.3628 122.201 17.634C115.05 14.9051 107.403 13.7172 99.761 14.148H99.7476Z" fill="#5762C3"/>
</svg>
