<svg width="200" height="201" viewBox="0 0 200 201" fill="none" xmlns="http://www.w3.org/2000/svg">
<path d="M73 146L108.174 110L140 146L107.605 187.78L73 146Z" fill="#55FF00"/>
<g clip-path="url(#clip0_264_1073)">
<path d="M169 77.5C169 37.4594 147.541 0 107.5 0C67.4594 0 43 34.9594 43 75C43 115.041 67.4594 145 107.5 145C147.541 145 169 117.541 169 77.5Z" fill="#6F6FFB"/>
<path d="M75.7812 95.1562C82.0376 95.1562 87.1094 90.0845 87.1094 83.8281C87.1094 77.5718 82.0376 72.5 75.7812 72.5C69.5249 72.5 64.4531 77.5718 64.4531 83.8281C64.4531 90.0845 69.5249 95.1562 75.7812 95.1562Z" fill="#F0BD70"/>
<path d="M75.7812 92.8906H114.297V149.237C114.297 149.237 106.043 154.062 95.0391 154.062C84.0349 154.062 75.7812 146.185 75.7812 146.185V92.8906Z" fill="#F0BD70"/>
<path d="M114.297 122.045C114.297 134.855 112.299 133.64 99.3053 133.64C86.312 133.64 80.3171 123.257 80.3171 110.447C80.3171 97.6371 79.8232 86.0938 90.3085 86.0938C119.961 87.2266 114.297 109.235 114.297 122.045Z" fill="#E9B05B"/>
<path d="M138.961 81.789C138.961 102.003 147.312 126.859 110.899 126.859C74.4855 126.859 74.4855 102.003 74.4855 81.789C68.9846 57.7734 70.1174 29.4531 107.5 29.4531C144.883 29.4531 138.961 61.5729 138.961 81.789Z" fill="#FFCB7E"/>
<path d="M121.094 92.8906H118.828C117.577 92.8906 116.562 93.905 116.562 95.1562C116.562 96.4075 117.577 97.4219 118.828 97.4219H121.094C122.345 97.4219 123.359 96.4075 123.359 95.1562C123.359 93.905 122.345 92.8906 121.094 92.8906Z" fill="#F0BD70"/>
<path d="M121.094 135.938H71.25C59.9886 135.938 50.8594 145.067 50.8594 156.328V167.656C50.8594 178.918 59.9886 188.047 71.25 188.047H121.094C132.355 188.047 141.484 178.918 141.484 167.656V156.328C141.484 145.067 132.355 135.938 121.094 135.938Z" fill="#55FF00"/>
<path fill-rule="evenodd" clip-rule="evenodd" d="M139.146 73.594C141.027 72.5327 142.466 70.8347 143.206 68.8059C143.945 66.7772 143.936 64.551 143.179 62.5286C145.247 61.5316 146.86 59.7867 147.691 57.6464C148.522 55.5062 148.51 53.1302 147.657 50.9985C146.804 48.8669 145.174 47.1384 143.096 46.1624C141.018 45.1863 138.647 45.0355 136.461 45.7403C139.672 54.0642 139.436 64.3593 139.146 73.594Z" fill="#47280B"/>
<path fill-rule="evenodd" clip-rule="evenodd" d="M117.235 51.5657C115.171 53.3807 112.515 54.3797 109.766 54.3751C107.258 54.3791 104.821 53.5477 102.84 52.0121C101.369 53.4822 99.6229 54.6477 97.7012 55.442C95.7795 56.2362 93.72 56.6436 91.6406 56.6407C90.0706 56.6418 88.5092 56.4097 87.0074 55.952C86.4169 56.5983 85.7362 57.1561 84.9865 57.6081C85.8784 58.6694 86.5149 59.9212 86.8471 61.267C87.1793 62.6129 87.1983 64.0171 86.9027 65.3715C86.607 66.7259 86.0046 67.9944 85.1418 69.0794C84.2789 70.1644 83.1787 71.037 81.9256 71.6301C82.2996 72.1424 82.5227 72.749 82.5698 73.3815C82.6169 74.014 82.4861 74.647 82.1921 75.209C81.8982 75.771 81.4528 76.2395 80.9064 76.5616C80.36 76.8836 79.7344 77.0463 79.1004 77.0313C77.9897 78.9638 76.2059 80.4192 74.0898 81.1194C71.9737 81.8195 69.6738 81.7152 67.6297 80.8265C65.5856 79.9378 63.9407 78.3269 63.0095 76.3019C62.0783 74.2768 61.926 71.9796 62.5817 69.8493C61.7375 69.0088 61.0678 68.0096 60.6113 66.9092C60.1548 65.8088 59.9205 64.6289 59.9219 63.4376C59.9219 60.9318 60.9391 58.6639 62.5817 57.0259C62.1441 55.5947 62.0678 54.0773 62.3596 52.6094C62.6513 51.1415 63.3021 49.7687 64.2538 48.6136C63.0751 46.5368 62.3805 44.2207 62.2217 41.838C62.0628 39.4553 62.4438 37.0675 63.3363 34.8526C64.2288 32.6377 65.6098 30.6528 67.3762 29.046C69.1427 27.4391 71.249 26.2517 73.5383 25.5722C73.4205 23.944 73.7448 22.3142 74.4768 20.855C75.2088 19.3959 76.3213 18.1615 77.6968 17.2824C79.0724 16.4033 80.6598 15.912 82.2915 15.8605C83.9232 15.8091 85.5384 16.1993 86.9666 16.99C88.3585 14.5788 90.3609 12.5766 92.7722 11.185C95.1836 9.79337 97.919 9.06135 100.703 9.0626C103.814 9.0626 106.716 9.95752 109.165 11.5072C110.848 9.69496 112.959 8.33535 115.305 7.5537C117.651 6.77205 120.156 6.59351 122.589 7.03454C125.022 7.47556 127.305 8.52196 129.227 10.0773C131.15 11.6326 132.649 13.6468 133.589 15.9342C134.787 16.0896 135.943 16.4831 136.987 17.0917C138.031 17.7002 138.943 18.5115 139.669 19.4777C140.395 20.444 140.92 21.5457 141.214 22.718C141.508 23.8903 141.565 25.1096 141.38 26.304C145.583 29.417 148.281 34.2382 148.281 39.6485C148.281 49.0328 140.166 56.6407 130.156 56.6407C125.097 56.6407 120.523 54.6968 117.235 51.5657Z" fill="#47280B"/>
<path d="M100.542 104.219C100.542 103.618 100.781 103.042 101.206 102.617C101.631 102.192 102.207 101.953 102.808 101.953H123.523C124.124 101.953 124.7 102.192 125.125 102.617C125.55 103.042 125.788 103.618 125.788 104.219C125.788 107.223 124.595 110.105 122.47 112.229C120.346 114.353 117.465 115.547 114.46 115.547H111.871C108.866 115.547 105.985 114.353 103.86 112.229C101.736 110.105 100.542 107.223 100.542 104.219Z" fill="#66253C"/>
<path fill-rule="evenodd" clip-rule="evenodd" d="M118.273 114.889C117.049 115.326 115.759 115.548 114.46 115.547H111.87C108.944 115.547 106.132 114.414 104.022 112.387C101.912 110.36 100.668 107.595 100.551 104.672C102.282 104.024 104.851 104.098 107.387 104.173C108.193 104.196 108.995 104.218 109.766 104.218C114.773 104.218 118.828 107.769 118.828 112.148C118.828 113.111 118.631 114.035 118.273 114.889Z" fill="#B03E67"/>
<path d="M102.969 101.953H125.625V104.219C125.625 104.82 125.386 105.396 124.961 105.821C124.537 106.246 123.96 106.484 123.359 106.484H105.234C104.633 106.484 104.057 106.246 103.632 105.821C103.207 105.396 102.969 104.82 102.969 104.219V101.953Z" fill="white"/>
<path d="M109.766 84.9609C109.766 83.084 108.244 81.5625 106.367 81.5625C104.49 81.5625 102.969 83.084 102.969 84.9609V87.2266C102.969 89.1035 104.49 90.625 106.367 90.625C108.244 90.625 109.766 89.1035 109.766 87.2266V84.9609Z" fill="#1B0B47"/>
<path d="M132.422 84.9609C132.422 83.084 130.9 81.5625 129.023 81.5625C127.147 81.5625 125.625 83.084 125.625 84.9609V87.2266C125.625 89.1035 127.147 90.625 129.023 90.625C130.9 90.625 132.422 89.1035 132.422 87.2266V84.9609Z" fill="#1B0B47"/>
<path d="M97.3047 88.3594H92.7734C90.8965 88.3594 89.375 89.8809 89.375 91.7578C89.375 93.6347 90.8965 95.1562 92.7734 95.1562H97.3047C99.1816 95.1562 100.703 93.6347 100.703 91.7578C100.703 89.8809 99.1816 88.3594 97.3047 88.3594Z" fill="#FF859B"/>
<path d="M138.086 88.3594H135.82C133.943 88.3594 132.422 89.8809 132.422 91.7578C132.422 93.6347 133.943 95.1562 135.82 95.1562H138.086C139.963 95.1562 141.484 93.6347 141.484 91.7578C141.484 89.8809 139.963 88.3594 138.086 88.3594Z" fill="#FF859B"/>
</g>
<path d="M107.733 200.182L102.4 193.582C89.4267 177.729 37.0667 106.169 37.0667 71.4491C36.2711 53.5522 42.6175 36.0724 54.7098 22.8548C66.8022 9.63726 83.6499 1.76472 101.547 0.969065C103.52 0.880176 105.498 0.880176 107.48 0.969065C125.377 0.173419 142.857 6.51984 156.074 18.6122C169.292 30.7045 177.164 47.5523 177.96 65.4491C178.049 67.4491 178.049 69.4491 177.96 71.4491C177.96 100.956 142.373 152.929 115.587 189.462L107.733 200.182ZM107.48 14.1157C99.838 13.6849 92.1912 14.8729 85.04 17.6017C77.8888 20.3306 71.3945 24.5389 65.9822 29.9512C60.5699 35.3635 56.3616 41.8578 53.6327 49.009C50.9038 56.1602 49.7159 63.807 50.1467 71.4491C50.1467 95.8757 86.9334 151.956 107.293 178.569C123.96 155.769 164.827 98.7157 164.827 71.4491C165.258 63.807 164.07 56.1602 161.341 49.009C158.612 41.8578 154.404 35.3635 148.991 29.9512C143.579 24.5389 137.085 20.3306 129.933 17.6017C122.782 14.8729 115.135 13.6849 107.493 14.1157H107.48Z" fill="#5762C3"/>
<defs>
<clipPath id="clip0_264_1073">
<rect x="35" width="145" height="145" rx="72.5" fill="white"/>
</clipPath>
</defs>
</svg>
