<svg width="200" height="201" viewBox="0 0 200 201" fill="none" xmlns="http://www.w3.org/2000/svg">
<rect x="66.4163" y="152.812" width="46.0328" height="45.119" transform="rotate(-44.277 66.4163 152.812)" fill="#00C2FF"/>
<g clip-path="url(#clip0_252_445)">
<path d="M160 75C160 34.1309 140.202 1 99.3333 1C58.4643 1 38 34.1309 38 75C38 115.869 58.4643 149 99.3333 149C140.202 149 160 115.869 160 75Z" fill="#FFBAF8"/>
<path d="M66.9583 98.125C73.344 98.125 78.5208 92.9483 78.5208 86.5625C78.5208 80.1767 73.344 75 66.9583 75C60.5725 75 55.3958 80.1767 55.3958 86.5625C55.3958 92.9483 60.5725 98.125 66.9583 98.125Z" fill="#EAC0B3"/>
<path d="M66.9583 95.8125H106.271V153.324C106.271 153.324 97.8463 158.25 86.6145 158.25C75.3827 158.25 66.9583 150.209 66.9583 150.209V95.8125Z" fill="#EAC0B3"/>
<path d="M106.271 125.57C106.271 138.645 104.231 137.405 90.9688 137.405C77.7066 137.405 71.5877 126.807 71.5877 113.732C71.5877 100.657 71.0836 88.875 81.7858 88.875C112.052 90.0312 106.271 112.495 106.271 125.57Z" fill="#C99688"/>
<path d="M131.445 84.4812C131.445 105.113 139.969 130.484 102.802 130.484C65.6356 130.484 65.6356 105.113 65.6356 84.4812C60.0208 59.9687 61.1771 31.0625 99.3333 31.0625C137.49 31.0625 131.445 63.8468 131.445 84.4812Z" fill="#F5D0C5"/>
<path d="M113.208 95.8125H110.896C109.619 95.8125 108.583 96.8478 108.583 98.125C108.583 99.4022 109.619 100.438 110.896 100.438H113.208C114.485 100.438 115.521 99.4022 115.521 98.125C115.521 96.8478 114.485 95.8125 113.208 95.8125Z" fill="#EAC0B3"/>
<path d="M113.208 139.75H62.3333C50.8388 139.75 41.5208 149.068 41.5208 160.562V172.125C41.5208 183.619 50.8388 192.938 62.3333 192.938H113.208C124.703 192.938 134.021 183.619 134.021 172.125V160.562C134.021 149.068 124.703 139.75 113.208 139.75Z" fill="#00C2FF"/>
<path fill-rule="evenodd" clip-rule="evenodd" d="M80.8333 58.8128C80.8333 60.0385 80.5951 61.2109 80.1627 62.2816C80.7308 63.6861 80.9453 65.2086 80.7872 66.7154C80.6291 68.2222 80.1034 69.6671 79.2561 70.9231C78.4089 72.1791 77.2661 73.2078 75.9282 73.9187C74.5904 74.6296 73.0983 75.0011 71.5833 75.0004C71.5833 77.4536 70.6087 79.8064 68.874 81.5411C67.1393 83.2758 64.7865 84.2504 62.3333 84.2504C59.88 84.2504 57.5273 83.2758 55.7925 81.5411C54.0578 79.8064 53.0833 77.4536 53.0833 75.0004C53.0833 72.5815 53.2336 68.567 53.9343 65.008C53.1839 63.3869 52.919 61.5832 53.1715 59.8148C53.424 58.0464 54.1832 56.389 55.3573 55.0427C56.5314 53.6964 58.0703 52.7189 59.7879 52.2282C61.5055 51.7376 63.3285 51.7548 65.0366 52.2777C66.3296 50.9824 67.9778 50.0997 69.7726 49.7415C71.5674 49.3832 73.4282 49.5654 75.1194 50.2651C76.8106 50.9647 78.2562 52.1504 79.2733 53.6719C80.2905 55.1935 80.8333 56.9826 80.8333 58.8128ZM131.359 79.3779C132.656 79.0697 133.871 78.4851 134.92 77.664C135.97 76.8429 136.83 75.8047 137.442 74.6205C138.053 73.4363 138.402 72.134 138.464 70.8026C138.525 69.4713 138.299 68.1423 137.799 66.9066C138.325 65.6068 138.549 64.2044 138.453 62.8054C138.357 61.4065 137.945 60.0476 137.247 58.8315C136.549 57.6155 135.583 56.574 134.423 55.786C133.264 54.9979 131.94 54.4839 130.552 54.2827C131.923 61.5439 131.667 69.5706 131.435 76.885L131.359 79.3779Z" fill="#1B0B47"/>
<path d="M92.2317 107.375C92.2317 106.762 92.4753 106.173 92.909 105.74C93.3427 105.306 93.9309 105.062 94.5442 105.062H115.687C116.301 105.062 116.889 105.306 117.323 105.74C117.756 106.173 118 106.762 118 107.375C118 110.442 116.782 113.383 114.613 115.551C112.445 117.719 109.504 118.938 106.437 118.938H103.794C100.728 118.938 97.7866 117.719 95.6183 115.551C93.4499 113.383 92.2317 110.442 92.2317 107.375Z" fill="#66253C"/>
<path fill-rule="evenodd" clip-rule="evenodd" d="M110.329 118.267C109.08 118.712 107.763 118.939 106.437 118.938H103.794C100.807 118.938 97.9368 117.782 95.7832 115.713C93.6296 113.644 92.3602 110.822 92.2407 107.838C94.0075 107.176 96.6299 107.253 99.2175 107.329C100.041 107.352 100.859 107.375 101.646 107.375C106.756 107.375 110.896 110.999 110.896 115.469C110.896 116.452 110.695 117.395 110.329 118.267Z" fill="#B03E67"/>
<path d="M94.7083 105.062H117.833V107.375C117.833 107.988 117.59 108.577 117.156 109.01C116.722 109.444 116.134 109.688 115.521 109.688H97.0208C96.4074 109.688 95.8192 109.444 95.3856 109.01C94.9519 108.577 94.7083 107.988 94.7083 107.375V105.062Z" fill="white"/>
<path d="M99.3333 105.756C99.3333 105.572 99.4063 105.396 99.5364 105.266C99.6665 105.136 99.843 105.063 100.027 105.063H103.265C103.448 105.062 103.625 105.136 103.755 105.266C103.885 105.396 103.958 105.572 103.958 105.756V111.306C103.958 111.49 103.885 111.667 103.755 111.797C103.625 111.927 103.448 112 103.265 112H100.027C99.843 112 99.6665 111.927 99.5364 111.797C99.4063 111.667 99.3333 111.49 99.3333 111.306V105.756Z" fill="#B03E67"/>
<path d="M101.646 87.7188C101.646 85.803 100.093 84.25 98.177 84.25C96.2613 84.25 94.7083 85.803 94.7083 87.7188V90.0312C94.7083 91.947 96.2613 93.5 98.177 93.5C100.093 93.5 101.646 91.947 101.646 90.0312V87.7188Z" fill="#1B0B47"/>
<path d="M124.771 87.7188C124.771 85.803 123.218 84.25 121.302 84.25C119.386 84.25 117.833 85.803 117.833 87.7188V90.0312C117.833 91.947 119.386 93.5 121.302 93.5C123.218 93.5 124.771 91.947 124.771 90.0312V87.7188Z" fill="#1B0B47"/>
<path fill-rule="evenodd" clip-rule="evenodd" d="M112.052 100.438C97.0208 103.906 86.6145 105.062 86.6145 105.062C86.6145 105.062 88.927 110.844 94.7083 109.687C99.3333 108.762 108.583 106.605 112.052 105.062V100.438ZM113.208 100.438C127.083 102.75 136.333 104.498 136.333 104.498C136.333 104.498 133.746 109.546 128.24 108.531L127.5 108.395C123.05 107.578 116.33 106.341 113.208 105.062V100.438Z" fill="#1B0B47"/>
</g>
<path d="M100.001 200.215L94.6676 193.615C81.6943 177.761 29.3343 106.201 29.3343 71.4813C28.5387 53.5845 34.8851 36.1046 46.9774 22.8871C59.0698 9.66949 75.9175 1.79694 93.8143 1.00129C95.7876 0.912403 97.7654 0.912403 99.7476 1.00129C117.644 0.205646 135.124 6.55206 148.342 18.6444C161.559 30.7368 169.432 47.5845 170.228 65.4813C170.317 67.4813 170.317 69.4813 170.228 71.4813C170.228 100.988 134.641 152.961 107.854 189.495L100.001 200.215ZM99.7476 14.148C92.1056 13.7172 84.4588 14.9051 77.3076 17.634C70.1564 20.3628 63.6621 24.5712 58.2498 29.9835C52.8375 35.3958 48.6292 41.8901 45.9003 49.0412C43.1714 56.1924 41.9835 63.8393 42.4143 71.4813C42.4143 95.908 79.201 151.988 99.561 178.601C116.228 155.801 157.094 98.748 157.094 71.4813C157.525 63.8393 156.337 56.1924 153.608 49.0412C150.879 41.8901 146.671 35.3958 141.259 29.9835C135.846 24.5712 129.352 20.3628 122.201 17.634C115.05 14.9051 107.403 13.7172 99.761 14.148H99.7476Z" fill="#5762C3"/>
<defs>
<clipPath id="clip0_252_445">
<rect x="25.3333" y="1" width="148" height="148" rx="74" fill="white"/>
</clipPath>
</defs>
</svg>
