<svg width="200" height="201" viewBox="0 0 200 201" fill="none" xmlns="http://www.w3.org/2000/svg">
<path d="M169.719 69.7339C169.719 35.054 141.605 6.94043 106.925 6.94043C72.2453 6.94043 37.6235 35.054 37.6235 69.7339C37.6235 104.414 59.3793 145.554 94.0592 145.554C128.739 145.554 169.719 104.414 169.719 69.7339Z" fill="#E4ECF7"/>
<path d="M79.4477 89.3593C84.8664 89.3593 89.2592 84.9666 89.2592 79.5478C89.2592 74.1291 84.8664 69.7363 79.4477 69.7363C74.029 69.7363 69.6362 74.1291 69.6362 79.5478C69.6362 84.9666 74.029 89.3593 79.4477 89.3593Z" fill="#836055"/>
<path d="M79.4502 87.396H112.809V136.198C112.809 136.198 105.66 140.378 96.1296 140.378C86.5988 140.378 79.4502 133.555 79.4502 133.555V87.396Z" fill="#836055"/>
<path d="M112.806 112.647C112.806 123.742 105.938 124.68 99.8214 122.69C93.7069 120.704 81.4092 103.397 81.4092 92.3022C81.4092 81.2074 82.9476 81.5096 92.0311 81.5096C117.712 82.4907 112.806 101.552 112.806 112.647Z" fill="#553329"/>
<path d="M134.171 77.7782C134.171 95.2858 126.542 114.866 113.787 117.809C95.1452 115.847 78.3284 95.2858 78.3284 77.7782C73.5639 56.9779 74.5451 32.4492 106.923 32.4492C139.301 32.4492 134.171 60.2687 134.171 77.7782Z" fill="#836055"/>
<path d="M118.694 87.396H116.731C115.648 87.396 114.769 88.2746 114.769 89.3583C114.769 90.4421 115.648 91.3206 116.731 91.3206H118.694C119.777 91.3206 120.656 90.4421 120.656 89.3583C120.656 88.2746 119.777 87.396 118.694 87.396Z" fill="#68463C"/>
<path d="M118.695 124.679H75.5244C65.7707 124.679 64.3564 132.586 64.3564 142.34L73.2673 148.525C73.2673 158.278 72.4245 166.346 82.1782 166.346L102.97 183.178C112.724 183.178 129.703 152.094 129.703 142.34H136.355C136.355 132.586 128.449 124.679 118.695 124.679Z" fill="#E05A33"/>
<path d="M44.1252 26.5632C59.8176 10.8727 69.637 32.452 69.637 32.452L65.7084 48.1504C65.7084 48.1504 61.7839 53.0561 65.7084 67.7733C69.633 82.4905 60.8027 90.3397 60.8027 90.3397C60.8027 90.3397 53.9347 95.2474 48.0478 91.3228C42.1609 87.3982 41.3819 83.6267 42.1609 76.6056C43.1421 67.7752 46.0855 70.7148 46.0855 61.8844C46.0855 53.0541 28.4307 42.2537 44.1232 26.5632H44.1252Z" fill="#1B0B47"/>
<path d="M69.6919 32.8013L80.5002 37.4755L73.4909 53.684L62.6845 49.0138C62.6845 49.0138 60.8007 45.201 63.7442 39.3161C66.6817 33.4292 69.6939 32.8013 69.6939 32.8013H69.6919Z" fill="#FF6C98"/>
<path fill-rule="evenodd" clip-rule="evenodd" d="M79.4481 87.3961L76.852 70.0828C74.5593 70.7096 72.5721 72.1473 71.2596 74.1289C69.9471 76.1104 69.3985 78.5011 69.7158 80.8566C70.033 83.2121 71.1946 85.3724 72.9846 86.9361C74.7746 88.4998 77.0713 89.3605 79.4481 89.3584V105.645C76.3376 102.886 73.6394 99.6941 71.4361 96.1676C68.1002 90.8616 65.769 84.7784 64.6034 78.3244C63.4384 71.8527 63.465 65.2226 64.6819 58.7604C65.8985 52.3182 68.2787 46.2606 71.6598 40.9918C75.0389 35.725 79.3422 31.3707 84.2773 28.2251C89.2105 25.0776 94.6618 23.2114 100.264 22.7523C101.483 22.6525 102.707 22.6197 103.93 22.6541C109.149 22.5161 114.345 23.3993 119.226 25.2542C123.749 26.981 127.86 29.5104 131.321 32.6991C134.741 35.8282 137.49 39.6178 139.404 43.8391C140.86 47.0665 141.772 50.5123 142.104 54.0371H142.242V62.4475C142.242 62.4475 141.596 62.7458 140.283 63.1657V79.8217C140.283 79.8217 140.283 82.5767 137.34 84.6411C136.319 85.3573 134.95 85.9068 133.592 86.3208C133.977 83.4897 134.171 80.636 134.175 77.7789C134.175 75.7499 134.243 73.5816 134.314 71.3348C134.384 69.1409 134.457 66.8705 134.471 64.5825C130.837 65.2477 125.902 65.8109 119.601 65.8109C104.201 65.8109 95.1465 62.4475 95.1465 62.4475V60.4872C93.8121 62.5751 92.3679 65.0986 91.2219 67.7732C89.7502 71.2072 89.7502 74.7276 89.7502 77.6847C89.7502 80.6439 89.7502 83.0418 88.2784 84.229C85.335 86.6034 79.4481 87.3961 79.4481 87.3961Z" fill="#1B0B47"/>
<path d="M108.883 80.5309C108.883 78.9052 107.565 77.5874 105.94 77.5874C104.314 77.5874 102.996 78.9052 102.996 80.5309V82.4932C102.996 84.1188 104.314 85.4366 105.94 85.4366C107.565 85.4366 108.883 84.1188 108.883 82.4932V80.5309Z" fill="#1B0B47"/>
<path d="M128.508 80.5309C128.508 78.9052 127.19 77.5874 125.565 77.5874C123.939 77.5874 122.621 78.9052 122.621 80.5309V82.4932C122.621 84.1188 123.939 85.4366 125.565 85.4366C127.19 85.4366 128.508 84.1188 128.508 82.4932V80.5309Z" fill="#1B0B47"/>
<path d="M98.0912 83.4717H94.1666C92.541 83.4717 91.2231 84.7895 91.2231 86.4151C91.2231 88.0407 92.541 89.3585 94.1666 89.3585H98.0912C99.7168 89.3585 101.035 88.0407 101.035 86.4151C101.035 84.7895 99.7168 83.4717 98.0912 83.4717Z" fill="#FF859B"/>
<path d="M133.416 83.4707H131.454C129.828 83.4707 128.51 84.7885 128.51 86.4142C128.51 88.0398 129.828 89.3576 131.454 89.3576H133.416C135.042 89.3576 136.359 88.0398 136.359 86.4142C136.359 84.7885 135.042 83.4707 133.416 83.4707Z" fill="#FF859B"/>
<path d="M100 200.214L94.6667 193.614C81.6934 177.76 29.3333 106.2 29.3333 71.4803C28.5377 53.5835 34.8841 36.1036 46.9765 22.8861C59.0688 9.66851 75.9165 1.79597 93.8134 1.00031C95.7867 0.911426 97.7645 0.911426 99.7467 1.00031C117.644 0.204669 135.123 6.55109 148.341 18.6434C161.559 30.7358 169.431 47.5835 170.227 65.4803C170.316 67.4803 170.316 69.4803 170.227 71.4803C170.227 100.987 134.64 152.96 107.853 189.494L100 200.214ZM99.7467 14.147C92.1047 13.7162 84.4578 14.9041 77.3066 17.633C70.1554 20.3619 63.6612 24.5702 58.2489 29.9825C52.8365 35.3948 48.6282 41.8891 45.8993 49.0402C43.1705 56.1914 41.9825 63.8383 42.4133 71.4803C42.4133 95.907 79.2 151.987 99.56 178.6C116.227 155.8 157.093 98.747 157.093 71.4803C157.524 63.8383 156.336 56.1914 153.607 49.0402C150.879 41.8891 146.67 35.3948 141.258 29.9825C135.846 24.5702 129.351 20.3619 122.2 17.633C115.049 14.9041 107.402 13.7162 99.76 14.147H99.7467Z" fill="#5762C3"/>
</svg>
