<svg width="200" height="200" viewBox="0 0 200 200" fill="none" xmlns="http://www.w3.org/2000/svg">
<path d="M100 170.833C141.421 170.833 175 136.158 175 112.5C175 88.8416 141.421 54.1666 100 54.1666C58.5792 54.1666 25 88.8666 25 112.5C25 136.133 58.5792 170.833 100 170.833Z" stroke="#5762C3" stroke-width="18" stroke-linejoin="round"/>
<path d="M100 137.5C106.63 137.5 112.989 134.866 117.678 130.178C122.366 125.489 125 119.13 125 112.5C125 105.87 122.366 99.5107 117.678 94.8223C112.989 90.1339 106.63 87.5 100 87.5C93.3696 87.5 87.0107 90.1339 82.3223 94.8223C77.6339 99.5107 75 105.87 75 112.5C75 119.13 77.6339 125.489 82.3223 130.178C87.0107 134.866 93.3696 137.5 100 137.5V137.5Z" stroke="#5762C3" stroke-width="18" stroke-linejoin="round"/>
<path d="M55.2667 46.9417L66.075 62.025" stroke="#5762C3" stroke-width="18" stroke-linecap="round"/>
<path d="M148.438 48.7915L137.625 63.8748" stroke="#5762C3" stroke-width="18" stroke-linecap="round"/>
<path d="M100.038 29.1666V54.1666" stroke="#5762C3" stroke-width="18" stroke-linecap="round"/>
</svg>
